#!OML:ASF F:\VICON\USERDATA\INSTALL\Justin_Nancy\Justin_Nancy.ASF
:FULLY-SPECIFIED
:DEGREES
190
root 0.266601 17.1686 22.1686 -3.96414 -0.27132 0.350985
lowerback 7.1305 0.377925 -0.585818
upperback 0.984022 0.545376 2.68942
thorax -3.01395 0.290965 3.05885
lowerneck -14.5585 -3.12172 -10.0451
upperneck 22.01 -3.07646 5.01943
head 9.60644 -1.71558 3.04131
rclavicle -8.41108e-015 2.22639e-014
rhumerus -28.106 -9.4753 -77.3983
rradius 59.0026
rwrist 0.408228
rhand -12.7508 16.5176
rfingers 7.12502
rthumb 13.3334 -13.0358
lclavicle -8.41108e-015 2.22639e-014
lhumerus -38.7054 10.4381 86.1021
lradius 22.5074
lwrist -7.3927
lhand -15.801 20.6676
lfingers 7.12502
lthumb 10.3921 50.3908
rfemur -13.076 5.21482 24.1473
rtibia 36.8105
rfoot -14.0141 -8.5406
rtoes 1.08867
lfemur -15.9158 -4.14731 -21.7204
ltibia 36.7533
lfoot -12.909 0.351842
ltoes 1.07005
191
root 0.263698 17.1706 22.2321 -4.02121 -0.339751 0.310367
lowerback 6.80202 0.451896 -0.577796
upperback 0.989833 0.640468 2.65153
thorax -2.82935 0.336447 3.00641
lowerneck -13.9677 -3.15799 -10.0425
upperneck 21.8295 -3.2306 5.19565
head 9.4469 -1.77228 3.08409
rclavicle -2.05369e-014 3.18055e-015
rhumerus -28.3076 -10.3843 -77.3318
rradius 59.6938
rwrist -0.0172831
rhand -13.0642 16.4915
rfingers 7.12502
rthumb 13.0313 -13.0815
lclavicle -2.05369e-014 3.18055e-015
lhumerus -38.8147 10.6426 85.7958
lradius 22.04
lwrist -8.45884
lhand -15.0413 20.9603
lfingers 7.12502
lthumb 11.1249 50.6455
rfemur -12.7563 5.67436 24.2775
rtibia 36.7837
rfoot -14.1573 -8.93681
rtoes 1.34861
lfemur -15.5966 -4.20427 -21.7262
ltibia 36.7761
lfoot -13.1999 0.214391
ltoes 1.27872
192
root 0.271356 17.169 22.2876 -4.07266 -0.375987 0.235526
lowerback 6.72096 0.5173 -0.378841
upperback 0.930027 0.740619 2.58657
thorax -2.84815 0.384597 2.81756
lowerneck -13.6288 -3.26555 -10.0755
upperneck 21.8118 -3.44454 5.34065
head 9.39815 -1.86329 3.11551
rclavicle -5.8393e-016 7.95139e-016
rhumerus -28.613 -11.1544 -77.2818
rradius 60.2561
rwrist -1.08861
rhand -13.7367 16.8038
rfingers 7.12502
rthumb 12.3829 -12.8094
lclavicle -5.8393e-016 7.95139e-016
lhumerus -38.8625 11.0415 85.4112
lradius 21.4655
lwrist -9.67273
lhand -14.6805 21.3912
lfingers 7.12502
lthumb 11.4729 51.0573
rfemur -12.428 5.78619 24.3641
rtibia 36.689
rfoot -14.3998 -9.07467
rtoes 1.2464
lfemur -15.2761 -4.39387 -21.7391
ltibia 36.8368
lfoot -13.3852 0.631179
ltoes 1.21547
193
root 0.278009 17.1678 22.3381 -4.1468 -0.415331 0.0484872
lowerback 6.63816 0.557843 -0.120107
upperback 0.937429 0.813128 2.61757
thorax -2.79492 0.417744 2.69745
lowerneck -13.5574 -3.39965 -10.2151
upperneck 21.9993 -3.64053 5.45777
head 9.4728 -1.9574 3.15857
rclavicle 9.89575e-015 -2.54444e-014
rhumerus -28.8476 -11.7942 -77.1757
rradius 60.829
rwrist -1.99098
rhand -14.3184 17.4198
rfingers 7.12502
rthumb 11.8221 -12.2265
lclavicle 9.89575e-015 -2.54444e-014
lhumerus -38.761 11.4958 85.1538
lradius 20.8274
lwrist -10.6943
lhand -14.9865 21.1996
lfingers 7.12502
lthumb 11.1778 50.8818
rfemur -12.0656 5.83348 24.5856
rtibia 36.5243
rfoot -14.5054 -9.20293
rtoes 0.761926
lfemur -14.9638 -4.64962 -21.6342
ltibia 36.8818
lfoot -13.5764 1.12347
ltoes 0.522774
194
root 0.281447 17.1685 22.3948 -4.19422 -0.413792 -0.218028
lowerback 6.38825 0.573094 0.107257
upperback 0.992374 0.847704 2.73176
thorax -2.59872 0.431834 2.68605
lowerneck -13.6543 -3.45093 -10.3428
upperneck 22.2151 -3.7087 5.58663
head 9.578 -1.98769 3.21936
rclavicle 1.1076e-014 -2.8625e-014
rhumerus -29.151 -12.4225 -77.0268
rradius 61.5643
rwrist -2.55867
rhand -14.6791 17.7928
rfingers 7.12502
rthumb 11.4743 -11.8732
lclavicle 1.1076e-014 -2.8625e-014
lhumerus -38.5398 12.1735 84.8671
lradius 20.2054
lwrist -12.0556
lhand -15.2338 20.7067
lfingers 7.12502
lthumb 10.9393 50.4017
rfemur -11.6544 5.97227 24.9146
rtibia 36.2784
rfoot -14.5254 -9.349
rtoes 1.03248
lfemur -14.6792 -4.84778 -21.4368
ltibia 36.886
lfoot -13.769 1.28356
ltoes -0.531155
195
root 0.28636 17.1778 22.4581 -4.26906 -0.144958 -0.0298541
lowerback 6.13957 0.521445 -0.0252221
upperback 0.964082 0.763965 2.62711
thorax -2.48524 0.390486 2.66075
lowerneck -13.4079 -3.48202 -10.3446
upperneck 22.2189 -3.81825 5.74572
head 9.54492 -2.02531 3.26394
rclavicle -2.5196e-014 1.59028e-015
rhumerus -29.5446 -13.1051 -76.966
rradius 62.0813
rwrist -2.89673
rhand -14.9572 18.0129
rfingers 7.12502
rthumb 11.206 -11.6678
lclavicle -2.5196e-014 1.59028e-015
lhumerus -38.6571 12.2817 84.6354
lradius 20.1306
lwrist -13.0434
lhand -14.5779 20.5392
lfingers 7.12502
lthumb 11.5718 50.1997
rfemur -11.1664 5.72316 24.6995
rtibia 36.0425
rfoot -14.7772 -9.43106
rtoes 0.842148
lfemur -14.3482 -4.95589 -21.7766
ltibia 36.7855
lfoot -13.6974 1.35215
ltoes 0.0437852
196
root 0.293519 17.1899 22.5234 -4.37862 0.101168 -0.00689109
lowerback 6.02739 0.454657 0.0975584
upperback 0.859479 0.681034 2.52658
thorax -2.52378 0.348491 2.49463
lowerneck -13.0795 -3.54054 -10.3955
upperneck 22.2662 -3.9723 5.93343
head 9.5178 -2.08694 3.32266
rclavicle -3.93143e-015 -1.43125e-014
rhumerus -29.9205 -13.5096 -76.9189
rradius 62.3419
rwrist -3.49182
rhand -15.8481 17.6741
rfingers 7.12502
rthumb 10.3467 -12.0513
lclavicle -3.93143e-015 -1.43125e-014
lhumerus -39.1367 12.1595 84.4811
lradius 20.4005
lwrist -13.3123
lhand -14.2728 21.0598
lfingers 7.12502
lthumb 11.8661 50.7036
rfemur -10.6224 5.54158 24.6496
rtibia 35.8299
rfoot -15.0845 -9.46004
rtoes 1.20912
lfemur -13.983 -5.02178 -21.9142
ltibia 36.647
lfoot -13.6842 1.37595
ltoes 2.03328
197
root 0.301627 17.1938 22.5818 -4.37392 0.215608 0.188242
lowerback 5.8047 0.458472 0.0443789
upperback 0.827651 0.675974 2.37139
thorax -2.43047 0.345574 2.36539
lowerneck -13.2103 -3.60138 -10.4021
upperneck 22.5292 -4.09861 6.12667
head 9.65001 -2.12697 3.37952
rclavicle 9.6628e-015 -1.59028e-014
rhumerus -30.0213 -14.0097 -76.9121
rradius 62.4311
rwrist -3.9246
rhand -16.7116 17.3123
rfingers 7.12502
rthumb 9.51359 -12.4529
lclavicle 9.6628e-015 -1.59028e-014
lhumerus -39.2568 12.2366 84.2684
lradius 20.4026
lwrist -13.6334
lhand -14.9894 21.1804
lfingers 7.12502
lthumb 11.175 50.8628
rfemur -10.3149 5.46763 24.4041
rtibia 35.735
rfoot -15.3806 -9.46614
rtoes 1.43573
lfemur -13.6524 -5.04613 -22.2159
ltibia 36.439
lfoot -13.9389 1.30484
ltoes 1.896
198
root 0.304107 17.1939 22.628 -4.28472 0.264289 0.326282
lowerback 5.50752 0.468342 -0.0727623
upperback 0.833682 0.675436 2.27085
thorax -2.25811 0.345063 2.32898
lowerneck -13.2244 -3.61784 -10.3594
upperneck 22.566 -4.16827 6.27428
head 9.67331 -2.14 3.41645
rclavicle -1.25545e-014 -7.95139e-016
rhumerus -30.0855 -14.3788 -76.9222
rradius 62.5126
rwrist -4.2411
rhand -17.1749 17.438
rfingers 7.12502
rthumb 9.06653 -12.3471
lclavicle -1.25545e-014 -7.95139e-016
lhumerus -38.9861 12.4828 84.0451
lradius 20.1017
lwrist -14.2832
lhand -15.5584 21.0403
lfingers 7.12502
lthumb 10.6261 50.7516
rfemur -10.2293 5.64943 24.2838
rtibia 35.7216
rfoot -15.4421 -9.78109
rtoes 1.24873
lfemur -13.4135 -5.09157 -22.3702
ltibia 36.2295
lfoot -14.0849 1.28821
ltoes 1.33403
199
root 0.308304 17.1993 22.6752 -4.05192 0.401319 0.456911
lowerback 5.01924 0.446893 -0.170335
upperback 0.788276 0.634482 2.17415
thorax -2.02992 0.324146 2.28945
lowerneck -13.2076 -3.66577 -10.3363
upperneck 22.6399 -4.26849 6.36469
head 9.70665 -2.17601 3.43327
rclavicle -1.70396e-014 2.06736e-014
rhumerus -30.4376 -14.3919 -76.9566
rradius 62.8658
rwrist -4.78739
rhand -17.6911 17.4767
rfingers 7.12502
rthumb 8.56843 -12.3294
lclavicle -1.70396e-014 2.06736e-014
lhumerus -38.7949 12.627 83.8693
lradius 19.9973
lwrist -14.7562
lhand -15.3043 21.4627
lfingers 7.12502
lthumb 10.8713 51.1613
rfemur -10.3659 5.76085 24.1396
rtibia 35.8116
rfoot -15.5765 -10.0715
rtoes 1.22921
lfemur -13.3519 -5.1331 -22.4906
ltibia 35.9678
lfoot -14.0676 1.11597
ltoes 1.91874
200
root 0.312843 17.2022 22.7266 -3.89984 0.660439 0.625494
lowerback 4.69641 0.389707 -0.330458
upperback 0.68621 0.547336 2.11018
thorax -1.95145 0.281786 2.32068
lowerneck -13.2781 -3.71672 -10.4227
upperneck 22.8044 -4.33194 6.418
head 9.78797 -2.20791 3.46087
rclavicle 8.46698e-015 -2.3059e-014
rhumerus -30.9498 -14.2524 -76.8618
rradius 63.2013
rwrist -5.43528
rhand -18.2081 17.4374
rfingers 7.12502
rthumb 8.06951 -12.3885
lclavicle 8.46698e-015 -2.3059e-014
lhumerus -38.852 12.715 83.7833
lradius 20.2295
lwrist -15.0021
lhand -15.1938 21.9226
lfingers 7.12502
lthumb 10.9778 51.6156
rfemur -10.3526 5.58533 23.9338
rtibia 35.8896
rfoot -15.8478 -10.1964
rtoes 1.39167
lfemur -13.186 -5.14284 -22.67
ltibia 35.7247
lfoot -14.2396 0.711631
ltoes 1.60347
201
root 0.313424 17.2062 22.7756 -3.80686 0.88782 0.855918
lowerback 4.63257 0.369021 -0.574689
upperback 0.411338 0.508836 2.00534
thorax -2.19783 0.267671 2.35247
lowerneck -13.0237 -3.71956 -10.5558
upperneck 23.005 -4.38685 6.6046
head 9.82306 -2.2315 3.54873
rclavicle -3.62782e-015 9.54166e-015
rhumerus -31.6937 -14.163 -76.6889
rradius 63.3178
rwrist -5.80636
rhand -18.2697 17.9871
rfingers 7.12502
rthumb 8.01008 -11.8411
lclavicle -3.62782e-015 9.54166e-015
lhumerus -39.2493 12.5191 83.686
lradius 20.5927
lwrist -14.8105
lhand -15.2617 22.2371
lfingers 7.12502
lthumb 10.9124 51.9336
rfemur -10.247 5.4249 23.6649
rtibia 35.8727
rfoot -15.9633 -10.2652
rtoes 1.65254
lfemur -13.0047 -5.15533 -22.9157
ltibia 35.5361
lfoot -14.381 0.416715
ltoes 1.36573
202
root 0.315365 17.2064 22.8229 -3.75321 0.969403 0.762257
lowerback 4.54998 0.352273 -0.454598
upperback 0.197813 0.494533 1.96998
thorax -2.36921 0.261758 2.24944
lowerneck -12.8489 -3.74255 -10.662
upperneck 23.2481 -4.46614 6.77218
head 9.89013 -2.26549 3.62257
rclavicle -2.36057e-015 1.27222e-014
rhumerus -32.3186 -13.9873 -76.624
rradius 63.2303
rwrist -6.1023
rhand -18.0234 18.6512
rfingers 7.12502
rthumb 8.24771 -11.1678
lclavicle -2.36057e-015 1.27222e-014
lhumerus -39.5751 12.3483 83.5828
lradius 20.9367
lwrist -14.2223
lhand -15.6809 22.2034
lfingers 7.12502
lthumb 10.508 51.9207
rfemur -10.0765 5.39694 23.7777
rtibia 35.7702
rfoot -16.0524 -10.3844
rtoes 1.53283
lfemur -12.8119 -4.96084 -22.7922
ltibia 35.4171
lfoot -14.5669 0.178158
ltoes 1.78682
203
root 0.316456 17.2068 22.8723 -3.74439 0.926279 0.426223
lowerback 4.38682 0.346375 -0.139238
upperback 0.169199 0.503092 2.01979
thorax -2.30524 0.262674 2.12331
lowerneck -12.9154 -3.75832 -10.7167
upperneck 23.2967 -4.52506 6.98652
head 9.93155 -2.27376 3.70166
rclavicle 5.01931e-015 -2.78299e-014
rhumerus -32.5813 -13.7272 -76.6675
rradius 63.0827
rwrist -6.21492
rhand -18.115 18.2613
rfingers 7.12502
rthumb 8.15936 -11.5611
lclavicle 5.01931e-015 -2.78299e-014
lhumerus -39.5747 12.2742 83.531
lradius 21.3426
lwrist -13.3394
lhand -16.4014 22.1313
lfingers 7.12502
lthumb 9.81287 51.8826
rfemur -9.80893 5.58982 24.1934
rtibia 35.591
rfoot -16.2101 -10.6163
rtoes 1.34109
lfemur -12.6168 -4.72257 -22.3786
ltibia 35.3774
lfoot -14.9362 -0.178193
ltoes 1.89712
